<?xml version="1.0" encoding="UTF-8"?>
<!-- Uploaded to: SVG Repo, www.svgrepo.com, Generator: SVG Repo Mixer Tools -->
<svg width="800px" height="800px" fill="#000000" version="1.1" viewBox="0 0 24 24" xmlns="http://www.w3.org/2000/svg">
 <path d="m19.199 7.0759v11.674c0 1.2426-1.0073 2.2499-2.2499 2.2499h-9.8995c-1.2426 0-2.2499-1.0073-2.2499-2.2499v-13.499c0-1.2426 1.0073-2.2499 2.2499-2.2499h8.0744c0.11947-0.00758 0.24382 0.032254 0.34336 0.1318l3.5998 3.5998c0.09954 0.099541 0.13937 0.2239 0.1318 0.34336zm-4.4998-3.175h-7.6496c-0.74555 0-1.3499 0.60439-1.3499 1.3499v13.499c0 0.74555 0.60439 1.3499 1.3499 1.3499h9.8995c0.74555 0 1.3499-0.60439 1.3499-1.3499v-11.249h-3.1498c-0.24852 0-0.44998-0.20146-0.44998-0.44998zm0.89996 0.63636v2.0635h2.0635zm-6.7497 5.6624c-0.24852 0-0.44998-0.20146-0.44998-0.44998 0-0.24852 0.20146-0.44998 0.44998-0.44998h6.2997c0.24852 0 0.44998 0.20146 0.44998 0.44998 0 0.24852-0.20146 0.44998-0.44998 0.44998zm0 2.6999c-0.24852 0-0.44998-0.20146-0.44998-0.44998 0-0.24852 0.20146-0.44998 0.44998-0.44998h6.2997c0.24852 0 0.44998 0.20146 0.44998 0.44998 0 0.24852-0.20146 0.44998-0.44998 0.44998zm0 2.6999c-0.24852 0-0.44998-0.20146-0.44998-0.44998 0-0.24852 0.20146-0.44998 0.44998-0.44998h4.4998c0.24852 0 0.44998 0.20146 0.44998 0.44998 0 0.24852-0.20146 0.44998-0.44998 0.44998z" style="stroke-width:.75"/>
</svg>
