<?xml version="1.0" encoding="UTF-8"?>
<!-- Uploaded to: SVG Repo, www.svgrepo.com, Generator: SVG Repo Mixer Tools -->
<svg width="800px" height="800px" fill="#000000" version="1.1" viewBox="0 0 24 24" xmlns="http://www.w3.org/2000/svg">
 <path d="m11 18.291v-7.8016c0-0.27645 0.22386-0.50056 0.5-0.50056s0.5 0.22411 0.5 0.50056v7.8016l2.1464-2.1488c0.19526-0.19548 0.51184-0.19548 0.70711 0 0.19526 0.19548 0.19526 0.51241 0 0.70789l-3 3.0033c-0.19526 0.19548-0.51184 0.19548-0.70711 0l-3-3.0033c-0.19526-0.19548-0.19526-0.51241 0-0.70789s0.51184-0.19548 0.70711 0zm4.7439-13.288h0.75606c2.4853 0 4.5 2.017 4.5 4.505 0 2.488-2.0147 4.505-4.5 4.505-0.27614 0-0.5-0.22411-0.5-0.50056s0.22386-0.50056 0.5-0.50056c1.933 0 3.5-1.5687 3.5-3.5039 0-1.9351-1.567-3.5039-3.5-3.5039h-0.52746c0.01815 0.16435 0.02746 0.33136 0.02746 0.50056 0 0.27645-0.22386 0.50056-0.5 0.50056s-0.5-0.22411-0.5-0.50056c0-1.9351-1.567-3.5039-3.5-3.5039h-0.5c-2.2091 0-4 1.7929-4 4.0044v0.50056c0 0.27645-0.22386 0.50056-0.5 0.50056-1.3807 0-2.5 1.1205-2.5 2.5028 0 1.3822 1.1193 2.5028 2.5 2.5028 0.27614 0 0.5 0.22411 0.5 0.50056s-0.22386 0.50056-0.5 0.50056c-1.933 0-3.5-1.5687-3.5-3.5039 0-1.7652 1.3039-3.2255 3-3.4684 0-2.8 2.2386-5.041 5-5.041h0.5c1.9593 0 3.6262 1.2536 4.2439 3.0033z"/>
 <path d="m3.5833 21.46h16.833" style="fill:none;stroke-linecap:round;stroke-width:1.0801;stroke:#000"/>
</svg>
