<?xml version="1.0" encoding="UTF-8"?>
<!-- Uploaded to: SVG Repo, www.svgrepo.com, Generator: SVG Repo Mixer Tools -->
<svg width="800px" height="800px" fill="#000000" version="1.1" viewBox="0 0 24 24" xmlns="http://www.w3.org/2000/svg">
 <path d="m20 15.293v-9.7929c0-0.82843-0.67157-1.5-1.5-1.5h-13c-0.82843 0-1.5 0.67157-1.5 1.5v6.7929l3.1464-3.1464c0.19526-0.19526 0.51184-0.19526 0.70711 0l5.6464 5.6464 2.6464-2.6464c0.19526-0.19526 0.51184-0.19526 0.70711 0l3.1464 3.1464zm0 1.4142-3.5-3.5-2.6464 2.6464c-0.19526 0.19526-0.51184 0.19526-0.70711 0l-5.6464-5.6464-3.5 3.5v4.7929c0 0.82843 0.67157 1.5 1.5 1.5h13c0.82843 0 1.5-0.67157 1.5-1.5v-1.7929zm-17-11.207c0-1.3807 1.1193-2.5 2.5-2.5h13c1.3807 0 2.5 1.1193 2.5 2.5v13c0 1.3807-1.1193 2.5-2.5 2.5h-13c-1.3807 0-2.5-1.1193-2.5-2.5v-13zm12 0.5h2c0.55228 0 1 0.44772 1 1v2c0 0.55228-0.44772 1-1 1h-2c-0.55228 0-1-0.44772-1-1v-2c0-0.55228 0.44772-1 1-1zm0 1v2h2v-2h-2z" style="stroke-width:.75"/>
</svg>
