<?xml version="1.0" encoding="UTF-8"?>
<!-- Uploaded to: SVG Repo, www.svgrepo.com, Generator: SVG Repo Mixer Tools -->
<svg width="800px" height="800px" fill="#000000" version="1.1" viewBox="0 0 24 24" xmlns="http://www.w3.org/2000/svg">
 <path d="m5.2143 4c-0.67063 0-1.2143 0.54365-1.2143 1.2143v1.5714c0 0.67063 0.54365 1.2143 1.2143 1.2143h1.5714c0.67063 0 1.2143-0.54365 1.2143-1.2143v-1.5714c0-0.67063-0.54365-1.2143-1.2143-1.2143h-1.5714zm0-1h1.5714c1.2229 0 2.2143 0.99137 2.2143 2.2143v1.5714c0 1.2229-0.99137 2.2143-2.2143 2.2143h-1.5714c-1.2229 0-2.2143-0.99137-2.2143-2.2143v-1.5714c0-1.2229 0.99137-2.2143 2.2143-2.2143zm0 12h1.5714c1.2229 0 2.2143 0.99137 2.2143 2.2143v1.5714c0 1.2229-0.99137 2.2143-2.2143 2.2143h-1.5714c-1.2229 0-2.2143-0.99137-2.2143-2.2143v-1.5714c0-1.2229 0.99137-2.2143 2.2143-2.2143zm0 1c-0.67063 0-1.2143 0.54365-1.2143 1.2143v1.5714c0 0.67063 0.54365 1.2143 1.2143 1.2143h1.5714c0.67063 0 1.2143-0.54365 1.2143-1.2143v-1.5714c0-0.67063-0.54365-1.2143-1.2143-1.2143h-1.5714zm12-13h1.5714c1.2229 0 2.2143 0.99137 2.2143 2.2143v1.5714c0 1.2229-0.99137 2.2143-2.2143 2.2143h-1.5714c-1.2229 0-2.2143-0.99137-2.2143-2.2143v-1.5714c0-1.2229 0.99137-2.2143 2.2143-2.2143zm0 1c-0.67063 0-1.2143 0.54365-1.2143 1.2143v1.5714c0 0.67063 0.54365 1.2143 1.2143 1.2143h1.5714c0.67063 0 1.2143-0.54365 1.2143-1.2143v-1.5714c0-0.67063-0.54365-1.2143-1.2143-1.2143h-1.5714zm-4.2143 16v-0.5c0-0.27614 0.22386-0.5 0.5-0.5s0.5 0.22386 0.5 0.5v0.5h0.5c0.27614 0 0.5 0.22386 0.5 0.5s-0.22386 0.5-0.5 0.5h-2c-0.27614 0-0.5-0.22386-0.5-0.5s0.22386-0.5 0.5-0.5h0.5zm0-9h1v-0.5c0-0.27614 0.22386-0.5 0.5-0.5s0.5 0.22386 0.5 0.5v1c0 0.27614-0.22386 0.5-0.5 0.5h-3c-0.27614 0-0.5-0.22386-0.5-0.5s0.22386-0.5 0.5-0.5h0.5v-1h-0.5c-0.27614 0-0.5-0.22386-0.5-0.5s0.22386-0.5 0.5-0.5h1c0.27614 0 0.5 0.22386 0.5 0.5v1.5zm6 1v0.5c0 0.27614-0.22386 0.5-0.5 0.5s-0.5-0.22386-0.5-0.5v-2c0-0.27614 0.22386-0.5 0.5-0.5s0.5 0.22386 0.5 0.5v0.5h1v-0.5c0-0.27614 0.22386-0.5 0.5-0.5s0.5 0.22386 0.5 0.5v1c0 0.27614-0.22386 0.5-0.5 0.5h-1.5zm-6 2h-1.5c-0.27614 0-0.5-0.22386-0.5-0.5s0.22386-0.5 0.5-0.5h2c0.27614 0 0.5 0.22386 0.5 0.5v2c0 0.27614-0.22386 0.5-0.5 0.5h-3c-0.27614 0-0.5-0.22386-0.5-0.5s0.22386-0.5 0.5-0.5h2.5v-1zm-7.5-9h1c0.27614 0 0.5 0.22386 0.5 0.5v1c0 0.27614-0.22386 0.5-0.5 0.5h-1c-0.27614 0-0.5-0.22386-0.5-0.5v-1c0-0.27614 0.22386-0.5 0.5-0.5zm0 12h1c0.27614 0 0.5 0.22386 0.5 0.5v1c0 0.27614-0.22386 0.5-0.5 0.5h-1c-0.27614 0-0.5-0.22386-0.5-0.5v-1c0-0.27614 0.22386-0.5 0.5-0.5zm12-12h1c0.27614 0 0.5 0.22386 0.5 0.5v1c0 0.27614-0.22386 0.5-0.5 0.5h-1c-0.27614 0-0.5-0.22386-0.5-0.5v-1c0-0.27614 0.22386-0.5 0.5-0.5zm-4.5 0v-1h-2v1.5c0 0.27614-0.22386 0.5-0.5 0.5s-0.5-0.22386-0.5-0.5v-2c0-0.27614 0.22386-0.5 0.5-0.5h3c0.27614 0 0.5 0.22386 0.5 0.5v2c0 0.27614-0.22386 0.5-0.5 0.5h-1c-0.27614 0-0.5-0.22386-0.5-0.5s0.22386-0.5 0.5-0.5h0.5zm-2.5 3c-0.27614 0-0.5-0.22386-0.5-0.5s0.22386-0.5 0.5-0.5h3c0.27614 0 0.5 0.22386 0.5 0.5s-0.22386 0.5-0.5 0.5h-3zm0.5 10v2.5c0 0.27614-0.22386 0.5-0.5 0.5s-0.5-0.22386-0.5-0.5v-3c0-0.27614 0.22386-0.5 0.5-0.5h3c0.27614 0 0.5 0.22386 0.5 0.5s-0.22386 0.5-0.5 0.5h-2.5zm-2-6h0.5c0.27614 0 0.5 0.22386 0.5 0.5v1c0 0.27614-0.22386 0.5-0.5 0.5s-0.5-0.22386-0.5-0.5v-0.5h-0.5c-0.27614 0-0.5-0.22386-0.5-0.5v-2c0-0.27614 0.22386-0.5 0.5-0.5h1c0.27614 0 0.5 0.22386 0.5 0.5s-0.22386 0.5-0.5 0.5h-0.5v1zm-3-1h-0.5c-0.27614 0-0.5-0.22386-0.5-0.5s0.22386-0.5 0.5-0.5h1c0.27614 0 0.5 0.22386 0.5 0.5v3c0 0.27614-0.22386 0.5-0.5 0.5s-0.5-0.22386-0.5-0.5v-2.5zm10-0.5c0-0.27614 0.22386-0.5 0.5-0.5s0.5 0.22386 0.5 0.5v2c0 0.27614-0.22386 0.5-0.5 0.5s-0.5-0.22386-0.5-0.5v-2zm4 3.5v-0.5c0-0.27614 0.22386-0.5 0.5-0.5s0.5 0.22386 0.5 0.5v1c0 0.27614-0.22386 0.5-0.5 0.5h-3c-0.27614 0-0.5-0.22386-0.5-0.5s0.22386-0.5 0.5-0.5h2.5zm-4 2h2.5c0.27614 0 0.5 0.22386 0.5 0.5s-0.22386 0.5-0.5 0.5h-3c-0.27614 0-0.5-0.22386-0.5-0.5v-2c0-0.27614 0.22386-0.5 0.5-0.5s0.5 0.22386 0.5 0.5v1.5zm4 4v-3.5c0-0.27614 0.22386-0.5 0.5-0.5s0.5 0.22386 0.5 0.5v4c0 0.27614-0.22386 0.5-0.5 0.5h-4c-0.27614 0-0.5-0.22386-0.5-0.5s0.22386-0.5 0.5-0.5h3.5zm-4.5-1c-0.27614 0-0.5-0.22386-0.5-0.5s0.22386-0.5 0.5-0.5h3c0.27614 0 0.5 0.22386 0.5 0.5s-0.22386 0.5-0.5 0.5h-3zm-11.5-6h0.5c0.27614 0 0.5 0.22386 0.5 0.5s-0.22386 0.5-0.5 0.5h-1c-0.27614 0-0.5-0.22386-0.5-0.5v-3c0-0.27614 0.22386-0.5 0.5-0.5s0.5 0.22386 0.5 0.5v2.5z" style="stroke-width:.99999"/>
</svg>
