<?xml version="1.0" encoding="UTF-8"?>
<!-- Uploaded to: SVG Repo, www.svgrepo.com, Generator: SVG Repo Mixer Tools -->
<svg width="800px" height="800px" fill="#000000" version="1.1" viewBox="0 0 24 24" xmlns="http://www.w3.org/2000/svg">
 <path d="m20.1 8.5385h-1.8v2.7692h1.8zm0-1.3846v-0.69231c0-1.1471-0.60442-2.0769-1.35-2.0769h-0.45v2.7692zm0 8.3077v-2.7692h-1.8v2.7692zm0 1.3846h-1.8v2.7692h0.45c0.74558 0 1.35-0.92987 1.35-2.0769zm-16.2-1.3846h1.8v-2.7692h-1.8zm0 1.3846v0.69231c0 1.1471 0.60442 2.0769 1.35 2.0769h0.45v-2.7692zm0-8.3077v2.7692h1.8v-2.7692zm0-1.3846h1.8v-2.7692h-0.45c-0.74558 0-1.35 0.92987-1.35 2.0769zm2.7 4.1538h10.8v-6.9231h-10.8zm0 1.3846v6.9231h10.8v-6.9231zm-1.35-9.6923h13.5c1.2426 0 2.25 1.5498 2.25 3.4615v11.077c0 1.9118-1.0074 3.4615-2.25 3.4615h-13.5c-1.2426 0-2.25-1.5498-2.25-3.4615v-11.077c0-1.9118 1.0074-3.4615 2.25-3.4615z" style="stroke-width:.75"/>
</svg>
